<svg width="471" height="421" viewBox="0 0 471 421" fill="none" xmlns="http://www.w3.org/2000/svg">
<path fill-rule="evenodd" clip-rule="evenodd" d="M209.21 0.700013C210 1.56001 221.32 17.05 234.37 35.12C247.43 53.19 262.79 74.55 268.51 82.58C274.24 90.61 287.4 109.39 297.78 124.31C308.15 139.23 325.65 164.81 336.67 181.16C347.7 197.51 363.65 221.45 372.12 234.36C380.58 247.26 390.78 262.99 394.77 269.31C398.77 275.62 407.19 289.23 413.49 299.56C419.79 309.89 429.9 327.02 435.94 337.64C441.99 348.25 451.05 365.39 456.06 375.72C461.08 386.05 466.42 398.25 467.92 402.84C469.43 407.43 470.37 411.88 470.03 412.75C469.49 414.05 467.93 414.19 460.57 413.53C454.37 412.98 449.38 411.76 443.68 409.39C439.24 407.54 432.78 404.15 429.34 401.85C425.9 399.54 419.15 393.89 414.34 389.29C409.53 384.7 402.24 376.94 398.14 372.07C394.03 367.19 388.32 360.15 385.43 356.42C382.55 352.69 373.2 339.78 364.66 327.73C356.12 315.68 343.5 298.07 336.64 288.61C329.78 279.14 320.16 266.46 315.28 260.44C310.4 254.41 301.44 244.15 295.37 237.63C289.31 231.1 278.71 220.6 271.83 214.28C264.95 207.96 255.32 200.13 250.45 196.87C245.57 193.62 239.24 190.13 236.37 189.12C233.5 188.12 227.87 187.02 223.85 186.7C217.62 186.19 215.71 186.47 210.89 188.59C207.29 190.17 203.56 192.97 200.59 196.29C198.04 199.16 194.65 204.08 193.07 207.24C191.49 210.39 188.03 218.84 185.39 226.02C182.74 233.19 175.37 254.31 168.99 272.96C162.62 291.6 154.18 315.07 150.23 325.12C146.29 335.17 139.8 349.95 135.82 357.98C131.84 366.01 126.24 376.1 123.4 380.41C120.55 384.71 115.7 390.78 112.61 393.89C109.52 397 104.65 401.05 101.78 402.87C98.9101 404.71 93.1601 407.92 89.0001 410.01C84.8401 412.09 77.8001 415.05 73.3501 416.58C65.8101 419.18 63.7701 419.39 42.8401 419.81C22.0801 420.24 19.7501 420.09 11.5501 417.92C6.67013 416.64 2.08012 415.06 1.34012 414.43C0.59012 413.79 -0.00987679 412.56 0.000123206 411.71C0.0101232 410.84 6.43012 402.63 14.2601 393.45C22.0901 384.27 34.8401 368.31 42.5901 357.98C50.3301 347.65 62.4101 330.51 69.4301 319.9C76.4501 309.28 87.1301 292.15 93.1601 281.82C99.2001 271.49 108.33 255.06 113.45 245.31C118.56 235.56 126.8 219.13 131.75 208.8C136.69 198.47 143.37 183.92 146.59 176.46C150.77 166.77 152.25 162.16 151.8 160.29C151.45 158.85 146.67 145.95 141.19 131.6C135.7 117.26 130.82 105.05 130.32 104.48C129.74 103.8 126.6 104.44 121.34 106.31C116.9 107.89 107.15 110.18 99.6901 111.4C92.2301 112.61 82.3701 114.96 77.7801 116.59C73.1901 118.24 64.0301 122.65 57.4401 126.41C50.8401 130.17 45.2001 133.2 44.9201 133.15C44.6301 133.11 38.3001 125.32 30.8401 115.82C23.3801 106.34 15.6301 96.29 13.6301 93.5C10.0401 88.5 10.0101 88.37 11.8001 85.76C12.8001 84.3 16.0901 81.3 19.1001 79.09C22.1101 76.89 26.9201 74.1 29.7901 72.89C32.6601 71.69 38.0501 69.99 41.7901 69.12C45.5101 68.25 52.5601 67.05 57.4401 66.47C62.3101 65.88 70.5301 64.19 75.7001 62.71C80.9101 61.22 88.3401 58.09 92.3901 55.68C96.4101 53.29 101.92 49.33 104.65 46.87C107.37 44.42 110.19 42.56 110.91 42.75C111.63 42.94 114.56 48.26 117.43 54.57C120.3 60.87 125.59 72.57 129.2 80.56C132.8 88.55 136.59 98.61 137.63 102.91C138.66 107.21 142.75 121.15 146.73 133.89C150.7 146.63 154.3 156.71 154.73 156.32C155.17 155.91 159.3 145.96 163.91 134.2C168.52 122.43 177 98.96 182.75 82.04C188.5 65.11 195.94 41.64 199.28 29.88C202.63 18.11 205.91 6.38001 206.57 3.80001C207.62 -0.239987 207.98 -0.659988 209.21 0.700013ZM211.84 240.23C214.99 240.48 219.34 241.15 221.49 241.7C223.64 242.26 226.53 243.77 227.91 245.06C229.61 246.65 230.95 249.78 232.03 254.71C233.58 261.78 233.55 262.26 231.19 269.84C229.43 275.49 228.22 277.76 226.82 278C225.72 278.19 223.87 280.45 222.52 283.22C221.23 285.9 220.17 288.57 220.19 289.15C220.21 289.73 219.28 291.25 218.12 292.54C216.52 294.32 214.5 295.01 209.75 295.41C206.31 295.69 203.49 296.4 203.49 296.97C203.49 297.54 204.68 304.23 206.14 311.84C207.59 319.44 209.35 326.98 210.05 328.57C210.74 330.17 211.67 331.46 212.09 331.44C212.52 331.42 219.09 329.76 226.69 327.75C234.29 325.75 242.5 324.1 244.95 324.1C247.39 324.1 251.06 324.92 253.12 325.93C255.5 327.09 257.07 328.7 257.43 330.36C257.84 332.19 257.42 333.37 256.04 334.31C254.83 335.14 251.26 335.61 246.78 335.53C240.24 335.4 238.78 335.77 232.7 339.11C228.86 341.22 226.83 342.82 228.01 342.8C229.16 342.79 230.68 343.38 231.4 344.14C232.12 344.88 233.18 350.18 233.77 355.92C234.35 361.66 235.6 369.17 236.53 372.61C237.47 376.05 238.28 382.49 238.33 386.91C238.4 392.72 238 395.42 236.87 396.66C235.81 397.83 234.39 398.17 232.44 397.74C230.52 397.32 228.8 395.74 227.22 392.95C225.73 390.31 224.11 388.77 222.79 388.75C221.64 388.72 218.59 390.29 216.01 392.23C213.42 394.17 209.44 396.73 207.14 397.89C204.85 399.07 199.91 400.83 196.19 401.81C191.8 402.96 186.84 403.44 182.11 403.18C176.56 402.88 173.86 402.17 170.86 400.21C168.7 398.79 165.31 395.29 163.33 392.42C161.35 389.55 158.7 384.39 157.45 380.95C155.61 375.91 155.18 372.46 155.21 363.22C155.23 354.26 155.82 349.58 157.9 341.84C159.37 336.38 161.59 329.11 162.84 325.67C164.8 320.3 166.61 317.97 175.7 309.2C181.52 303.59 188.28 297.49 190.73 295.64C193.17 293.8 194.82 291.97 194.38 291.57C193.93 291.18 190.65 289.42 187.06 287.66C183.36 285.84 179.78 283.23 178.77 281.6C177.8 280.02 177.03 277.08 177.07 275.08C177.1 273.07 177.88 268.84 178.8 265.69C180.04 261.45 182.35 257.77 187.59 251.61C191.5 247.02 196.09 242.7 197.79 242.01C199.49 241.31 202.05 240.53 203.49 240.27C204.92 239.97 208.68 239.97 211.84 240.23ZM337.8 301.27C342.4 301.17 344.32 301.51 344.31 302.43C344.31 303.15 341.46 313.82 337.99 326.16C334.53 338.49 331.48 349.41 331.22 350.41C330.82 352.01 331.61 352.24 337.54 352.24C341.26 352.24 344.55 352.71 344.84 353.28C345.12 353.85 344.54 356.98 343.54 360.23C342.54 363.48 341.01 366.31 340.15 366.51C339.28 366.72 337.82 368.4 336.9 370.25C335.98 372.11 334.9 375.26 334.5 377.27C333.96 380 334.2 381.32 335.48 382.49C337.06 383.94 337.04 384.95 333.59 408.05L302.18 408.43C284.92 408.64 269.73 408.52 268.43 408.17C266.14 407.54 266.09 407.22 266.6 381.98L253.04 380.94V375.12C253.04 371.44 253.61 368.64 254.6 367.52C255.46 366.53 256.99 365.75 257.99 365.78C258.99 365.8 260.01 365.24 260.24 364.52C260.48 363.8 260.95 361.69 261.9 356.44L251.99 356.96C242.6 357.45 242.08 357.37 242.08 355.4C242.08 354.25 242.78 353.07 243.64 352.79C244.5 352.5 249.07 352.26 253.81 352.26C258.55 352.25 263.35 351.99 264.5 351.69C266.23 351.23 267.65 347.33 272.85 328.66C276.29 316.31 279.34 305.76 279.63 305.24C279.91 304.71 291.65 303.64 305.71 302.86C319.77 302.06 334.21 301.35 337.8 301.27ZM326.06 366.56C328.35 366.34 326.01 366.16 320.84 366.16C315.68 366.17 313.8 366.35 316.67 366.57C319.54 366.78 323.77 366.78 326.06 366.56ZM320.85 382.21C323.14 381.98 321.74 381.79 317.72 381.79C313.7 381.78 311.83 381.97 313.55 382.2C315.27 382.43 318.55 382.43 320.85 382.21Z" fill="white"/>
</svg>
