<?xml version="1.0" encoding="utf-8"?>
<!-- Generator: Adobe Illustrator 26.0.3, SVG Export Plug-In . SVG Version: 6.00 Build 0)  -->
<svg version="1.1" id="Camada_1" xmlns="http://www.w3.org/2000/svg" xmlns:xlink="http://www.w3.org/1999/xlink" x="0px" y="0px"
	 viewBox="0 0 723.48 659.46" style="enable-background:new 0 0 723.48 659.46;" xml:space="preserve">
<style type="text/css">
	.st0{fill:#00B296;}
	.st1{fill:#E8621E;}
	.st2{fill:url(#SVGID_1_);}
	.st3{fill:url(#SVGID_00000176032679318410207190000003179602535942903950_);}
	.st4{fill:url(#SVGID_00000046325342726935850060000000862953300459320196_);}
	.st5{fill:url(#SVGID_00000013187213570461624200000018409031136770939547_);}
	.st6{fill:url(#SVGID_00000129204689904733561610000001186647970983803791_);}
	.st7{fill:url(#SVGID_00000073709979233904898290000012015161720103774340_);}
	.st8{fill:url(#SVGID_00000052804612865907891240000011348406291423526039_);}
	.st9{fill:url(#SVGID_00000143588974723722597590000006192371020080685247_);}
	.st10{fill:url(#SVGID_00000029741312612400397800000000541803807138360965_);}
	.st11{fill:url(#SVGID_00000034777338294217405290000014916956105091420578_);}
	.st12{fill:url(#SVGID_00000019663575407932763760000002252591034949328040_);}
	.st13{fill:url(#SVGID_00000049222928666561967570000016318218813776690054_);}
	.st14{fill:url(#SVGID_00000130606538400314212700000011209465737300310460_);}
	.st15{fill:url(#SVGID_00000059301828274927256060000009605642265483612559_);}
	.st16{fill:url(#SVGID_00000097498365951101112830000008744132370110262459_);}
	.st17{fill:url(#SVGID_00000152223065478501413960000017547349002328705979_);}
	.st18{fill:url(#SVGID_00000139972625973528159180000018313089171615280007_);}
	.st19{fill:url(#SVGID_00000018217064000559731450000004115544134122047626_);}
	.st20{fill:url(#SVGID_00000000927471356836012010000007171095213871440521_);}
	.st21{fill:url(#SVGID_00000030460849061751206090000012098708357037317018_);}
	.st22{fill:url(#SVGID_00000054951251701950162020000010551340534240282293_);}
	.st23{fill:url(#SVGID_00000025444365089559356880000001000963566555958959_);}
	.st24{fill:url(#SVGID_00000071521723642082000850000007356667781554956196_);}
	.st25{fill:url(#SVGID_00000001660181770443415830000002451270589148265912_);}
	.st26{fill:url(#SVGID_00000137096330763086932720000001038928224727737019_);}
	.st27{fill:url(#SVGID_00000039128362470047250630000004754025710279265718_);}
	.st28{fill:url(#SVGID_00000075877373086780343530000015209246200461548183_);}
	.st29{fill:url(#SVGID_00000142895991568538300530000012977903744846515093_);}
	.st30{fill:url(#SVGID_00000053505714945194646370000018442255926583494534_);}
	.st31{fill:url(#SVGID_00000044136148790519314190000007837101849392023993_);}
	.st32{fill:url(#SVGID_00000021097620587057396330000004932737882895536810_);}
	.st33{fill-rule:evenodd;clip-rule:evenodd;fill:#DB4682;}
	.st34{fill:url(#SVGID_00000125603499062989437190000000372319133999328397_);}
	.st35{fill:url(#SVGID_00000100381777920174625450000018121409438911800991_);}
	.st36{fill:url(#SVGID_00000076590105402667460680000002831939164226519231_);}
	.st37{fill:url(#SVGID_00000081622062573997384050000009609177184330514339_);}
	.st38{fill:url(#SVGID_00000173854760724710697050000011044614196769918856_);}
	.st39{fill:url(#SVGID_00000002364828470217437230000014756337486634557084_);}
	.st40{fill:url(#SVGID_00000166658573447172958180000000917694194242666119_);}
	.st41{fill:url(#SVGID_00000176045659475217919570000009529275136028294794_);}
	.st42{fill:url(#SVGID_00000080166167317701688190000018389890478125719444_);}
	.st43{fill:url(#SVGID_00000102504746763849129790000004376102153717292208_);}
	.st44{fill:url(#SVGID_00000042731811268132126610000017418151229773342102_);}
	.st45{fill:url(#SVGID_00000150067335174290714590000007387965048420203957_);}
	.st46{fill:url(#SVGID_00000128465259614649576060000006648855891744532158_);}
	.st47{fill:url(#SVGID_00000119810042141292854270000013250917072508782737_);}
	.st48{fill:url(#SVGID_00000116219616873832848490000003748631836659146669_);}
	.st49{fill:url(#SVGID_00000030450680687612190400000013659896627773609150_);}
	.st50{fill:url(#SVGID_00000165935421340314141570000006823299885585652098_);}
	.st51{fill:url(#SVGID_00000088133692836382985200000012186411052216964261_);}
	.st52{fill:url(#SVGID_00000016073299852028703780000000211205946005959816_);}
	.st53{fill:url(#SVGID_00000054977451791685595760000010936650151633143203_);}
	.st54{fill:url(#SVGID_00000036930283631238869000000000701920945775905689_);}
	.st55{fill:url(#SVGID_00000129169137955968286850000006934645515982182537_);}
	.st56{fill:url(#SVGID_00000155106835738825563320000002287463593953035413_);}
	.st57{fill:url(#SVGID_00000086669778125609342340000011115137315637920953_);}
	.st58{fill:url(#SVGID_00000059305341190531030150000014977078412907070860_);}
	.st59{fill:url(#SVGID_00000021831993227365806910000005951837845731617197_);}
	.st60{fill:url(#SVGID_00000068667283445451957220000008535519383846104724_);}
	.st61{fill:url(#SVGID_00000121247994431437975560000005687695856420632223_);}
	.st62{fill:url(#SVGID_00000060738759522774416510000008800948518095757981_);}
	.st63{fill:url(#SVGID_00000038410111850683984150000002430563510441291156_);}
	.st64{fill:url(#SVGID_00000064353724004577331140000007571117072982692282_);}
	.st65{fill:#7E44F3;}
	.st66{fill:#DB4682;}
	.st67{fill:#0047C6;}
</style>
<g>
	<g>
		<linearGradient id="SVGID_1_" gradientUnits="userSpaceOnUse" x1="-97.628" y1="617.9001" x2="518.8564" y2="632.3207">
			<stop  offset="0" style="stop-color:#0047C6"/>
			<stop  offset="1" style="stop-color:#DB4682"/>
		</linearGradient>
		<path class="st2" d="M476.53,609.88c-2.47-2.26-5.04-3.98-7.7-5.15c-4.26-1.86-8.62-2.66-13.08-2.39h-0.24
			c-4.58,0.27-8.36,1.24-11.37,2.91c-3.01,1.68-5.97,4.08-8.9,7.22c-2.23,2.61-3.91,5.5-5.03,8.7c-1.12,3.19-1.68,6.44-1.68,9.73
			c0,3.08,0.48,6.06,1.44,8.94l0.16,0.4c1.22,3.62,3.15,6.9,5.78,9.85c2.63,2.95,5.78,5.28,9.45,6.98c3.67,1.6,7.53,2.39,11.57,2.39
			c4.73,0,9.15-1.04,13.24-3.11c2.29-1.22,4.22-2.54,5.78-3.95c1.57-1.41,3.02-3.04,4.35-4.91c1.75-2.45,3.08-5.09,3.99-7.94
			c0.9-2.84,1.36-5.76,1.36-8.74c0-5.11-1.25-9.84-3.75-14.2C480.79,614.39,479,612.14,476.53,609.88z M473.77,638.32
			c-0.64,1.49-1.68,3.06-3.11,4.71c-1.44,1.65-3.19,3.06-5.27,4.23c-2.55,1.28-5.29,1.91-8.22,1.91c-4.42,0-8.35-1.44-11.81-4.31
			c-2.13-1.7-3.75-3.79-4.87-6.26c-1.12-2.47-1.68-5.04-1.68-7.7c0-2.13,0.36-4.2,1.08-6.22c0.72-2.02,1.8-3.91,3.23-5.66l1.36-1.44
			c1.7-1.65,3.63-2.9,5.78-3.75c2.15-0.85,4.4-1.28,6.74-1.28c2.61,0,5.13,0.53,7.58,1.6c3.35,1.49,5.98,3.76,7.9,6.82
			c1.91,3.06,2.87,6.34,2.87,9.85C475.37,633.38,474.84,635.88,473.77,638.32z"/>
		
			<linearGradient id="SVGID_00000009575142577714005870000004972948073864263359_" gradientUnits="userSpaceOnUse" x1="-94.1201" y1="467.9361" x2="522.3643" y2="482.3568">
			<stop  offset="0" style="stop-color:#0047C6"/>
			<stop  offset="1" style="stop-color:#DB4682"/>
		</linearGradient>
		<path style="fill:url(#SVGID_00000009575142577714005870000004972948073864263359_);" d="M5.1,498.57h7.99
			c0.27,0,0.52-0.11,0.76-0.32c0.24-0.21,0.36-0.48,0.36-0.8l-0.16-32.05c0-0.75,0.21-1.12,0.64-1.12c0.27,0,0.56,0.24,0.88,0.72
			l20.14,32.05c0.43,0.69,0.83,1.12,1.2,1.28c0.37,0.16,1.04,0.24,2,0.24h5.67c0.32,0,0.6-0.11,0.84-0.32
			c0.24-0.21,0.36-0.48,0.36-0.8v-53.47c0-0.32-0.12-0.59-0.36-0.8c-0.24-0.21-0.52-0.32-0.84-0.32h-8.39
			c-0.32,0-0.6,0.11-0.84,0.32c-0.24,0.21-0.36,0.48-0.36,0.8l0.16,31.33c0,1.17-0.21,1.76-0.64,1.76c-0.37,0-0.85-0.53-1.44-1.6
			l-18.94-32.05c-0.21-0.37-0.51-0.56-0.88-0.56H5.1c-0.32,0-0.6,0.11-0.84,0.32c-0.24,0.21-0.36,0.48-0.36,0.8v53.47
			c0,0.32,0.12,0.59,0.36,0.8C4.5,498.47,4.78,498.57,5.1,498.57z"/>
		
			<linearGradient id="SVGID_00000127045369853823672580000015505251002044507545_" gradientUnits="userSpaceOnUse" x1="-93.5566" y1="443.8466" x2="522.9278" y2="458.2673">
			<stop  offset="0" style="stop-color:#0047C6"/>
			<stop  offset="1" style="stop-color:#DB4682"/>
		</linearGradient>
		<path style="fill:url(#SVGID_00000127045369853823672580000015505251002044507545_);" d="M60.65,452.46h7.51
			c0.43,0,0.77-0.15,1.04-0.44c0.27-0.29,0.4-0.62,0.4-1v-6.95c0-0.43-0.13-0.77-0.4-1.04c-0.27-0.27-0.61-0.4-1.04-0.4h-7.51
			c-0.37,0-0.71,0.13-1,0.4c-0.29,0.27-0.44,0.61-0.44,1.04v6.95c0,0.37,0.15,0.71,0.44,1C59.94,452.31,60.28,452.46,60.65,452.46z"
			/>
		
			<linearGradient id="SVGID_00000095334433019521995580000010380285400870575766_" gradientUnits="userSpaceOnUse" x1="-94.0907" y1="466.6795" x2="522.3937" y2="481.1002">
			<stop  offset="0" style="stop-color:#0047C6"/>
			<stop  offset="1" style="stop-color:#DB4682"/>
		</linearGradient>
		<path style="fill:url(#SVGID_00000095334433019521995580000010380285400870575766_);" d="M69.08,496.65
			c3.01,1.76,6.3,2.64,9.87,2.64c4.16,0,7.87-0.88,11.15-2.64c3.28-1.76,5.83-4.14,7.67-7.15c1.84-3.01,2.76-6.33,2.76-9.95v-35.49
			c0-0.37-0.15-0.7-0.44-1c-0.29-0.29-0.65-0.44-1.08-0.44h-7.35c-0.43,0-0.79,0.15-1.08,0.44c-0.29,0.29-0.44,0.63-0.44,1v35.49
			c0,1.71-0.51,3.29-1.52,4.76c-1.01,1.47-2.37,2.62-4.08,3.48c-1.71,0.85-3.57,1.28-5.59,1.28c-2.61,0-4.82-0.92-6.63-2.76
			c-1.81-1.84-2.72-4.09-2.72-6.75v-15.5c0-0.43-0.13-0.77-0.4-1.04c-0.27-0.27-0.61-0.4-1.04-0.4h-7.51c-0.37,0-0.71,0.13-1,0.4
			c-0.29,0.27-0.44,0.61-0.44,1.04v15.5c0,3.57,0.89,6.87,2.68,9.91C63.67,492.5,66.07,494.9,69.08,496.65z"/>
		
			<linearGradient id="SVGID_00000021100901683619381970000004527093000239816094_" gradientUnits="userSpaceOnUse" x1="-94.0583" y1="465.2934" x2="522.4261" y2="479.7141">
			<stop  offset="0" style="stop-color:#0047C6"/>
			<stop  offset="1" style="stop-color:#DB4682"/>
		</linearGradient>
		<path style="fill:url(#SVGID_00000021100901683619381970000004527093000239816094_);" d="M125.47,495.61
			c4.32,2.56,9.03,3.84,14.15,3.84c4,0,7.77-0.79,11.31-2.36c3.54-1.57,6.62-3.77,9.23-6.59c0.27-0.27,0.4-0.59,0.4-0.96
			c0-0.64-0.27-1.15-0.8-1.52l-3.2-2.88l-1.52-1.28c-0.27-0.27-0.64-0.4-1.12-0.4c-0.53,0-1.04,0.21-1.52,0.64
			c-1.71,1.71-3.65,3.02-5.83,3.96c-2.19,0.93-4.5,1.4-6.95,1.4c-3.3,0-6.35-0.84-9.15-2.52c-2.8-1.68-5.02-3.96-6.67-6.83
			c-1.65-2.88-2.48-5.99-2.48-9.35c0-3.36,0.83-6.47,2.48-9.35c1.65-2.88,3.88-5.16,6.67-6.83c2.8-1.68,5.85-2.52,9.15-2.52
			c2.56,0,5,0.52,7.31,1.56c2.32,1.04,4.33,2.49,6.03,4.36c0.21,0.27,0.48,0.4,0.8,0.4c0.32,0,0.61-0.13,0.88-0.4l5.75-4.96
			c0.27-0.21,0.4-0.51,0.4-0.88c0-0.32-0.11-0.59-0.32-0.8c-2.61-2.88-5.71-5.14-9.31-6.79c-3.6-1.65-7.45-2.48-11.55-2.48
			c-5.11,0-9.83,1.29-14.15,3.88c-4.32,2.59-7.74,6.07-10.27,10.47c-2.53,4.4-3.8,9.18-3.8,14.35c0,5.22,1.27,10.03,3.8,14.43
			C117.73,489.58,121.15,493.06,125.47,495.61z"/>
		
			<linearGradient id="SVGID_00000021080680452321329130000010912132170652736133_" gradientUnits="userSpaceOnUse" x1="-94.0352" y1="464.3079" x2="522.4492" y2="478.7285">
			<stop  offset="0" style="stop-color:#0047C6"/>
			<stop  offset="1" style="stop-color:#DB4682"/>
		</linearGradient>
		<path style="fill:url(#SVGID_00000021080680452321329130000010912132170652736133_);" d="M175.74,498.73h31.25
			c0.48,0,0.88-0.16,1.2-0.48c0.32-0.32,0.48-0.72,0.48-1.2v-6.87c0-0.43-0.16-0.8-0.48-1.12c-0.32-0.32-0.72-0.48-1.2-0.48h-19.34
			c-0.43,0-0.8-0.17-1.12-0.52c-0.32-0.35-0.48-0.73-0.48-1.16v-42.52c0-0.43-0.16-0.81-0.48-1.16c-0.32-0.35-0.72-0.52-1.2-0.52
			h-8.63c-0.43,0-0.81,0.17-1.16,0.52c-0.35,0.35-0.52,0.73-0.52,1.16v52.67c0,0.48,0.17,0.88,0.52,1.2
			C174.92,498.57,175.31,498.73,175.74,498.73z"/>
		
			<linearGradient id="SVGID_00000021817961151357898810000004872091043475786425_" gradientUnits="userSpaceOnUse" x1="-94.0018" y1="462.8784" x2="522.4826" y2="477.299">
			<stop  offset="0" style="stop-color:#0047C6"/>
			<stop  offset="1" style="stop-color:#DB4682"/>
		</linearGradient>
		<path style="fill:url(#SVGID_00000021817961151357898810000004872091043475786425_);" d="M223.29,498.49h36.36
			c0.43,0,0.77-0.15,1.04-0.44c0.27-0.29,0.4-0.63,0.4-1v-6.71c0-0.43-0.15-0.79-0.44-1.08c-0.29-0.29-0.63-0.44-1-0.44h-25.58
			c-0.91,0-1.51-0.19-1.8-0.56c-0.29-0.37-0.44-0.83-0.44-1.36v-8.47c0-0.43,0.12-0.84,0.36-1.24c0.24-0.4,0.71-0.6,1.4-0.6h20.06
			c0.37,0,0.69-0.12,0.96-0.36c0.27-0.24,0.4-0.55,0.4-0.92v-6.79c0-0.37-0.13-0.68-0.4-0.92c-0.27-0.24-0.59-0.36-0.96-0.36h-19.98
			c-0.8,0-1.31-0.09-1.52-0.28c-0.21-0.19-0.32-0.52-0.32-1v-0.24v-11.75c0-0.43,0.15-0.77,0.44-1.04c0.29-0.27,0.63-0.4,1-0.4
			h25.81c0.43,0,0.77-0.15,1.04-0.44c0.27-0.29,0.4-0.63,0.4-1v-6.71c0-0.43-0.13-0.77-0.4-1.04c-0.27-0.27-0.61-0.4-1.04-0.4
			h-35.81c-0.37,0-0.71,0.13-1,0.4c-0.29,0.27-0.44,0.61-0.44,1.04v52.67c0,0.37,0.15,0.71,0.44,1
			C222.58,498.35,222.92,498.49,223.29,498.49z"/>
		
			<linearGradient id="SVGID_00000026868039949510407660000007633743719640532408_" gradientUnits="userSpaceOnUse" x1="-93.9696" y1="461.5017" x2="522.5148" y2="475.9224">
			<stop  offset="0" style="stop-color:#0047C6"/>
			<stop  offset="1" style="stop-color:#DB4682"/>
		</linearGradient>
		<path style="fill:url(#SVGID_00000026868039949510407660000007633743719640532408_);" d="M273.64,480.11
			c1.23,3.62,3.16,6.91,5.79,9.87c2.64,2.96,5.79,5.29,9.47,6.99c3.68,1.6,7.54,2.4,11.59,2.4c4.74,0,9.16-1.04,13.27-3.12
			c2.29-1.23,4.22-2.54,5.79-3.96c1.57-1.41,3.02-3.05,4.36-4.92c1.76-2.45,3.09-5.1,4-7.95c0.91-2.85,1.36-5.77,1.36-8.75
			c0-5.11-1.25-9.86-3.76-14.23c-1.12-2.24-2.92-4.49-5.4-6.75c-2.48-2.26-5.05-3.98-7.71-5.16c-4.26-1.86-8.63-2.66-13.11-2.4
			h-0.24c-4.58,0.27-8.38,1.24-11.39,2.92c-3.01,1.68-5.98,4.09-8.91,7.23c-2.24,2.61-3.92,5.51-5.04,8.71
			c-1.12,3.2-1.68,6.45-1.68,9.75c0,3.09,0.48,6.07,1.44,8.95L273.64,480.11z M283.43,464.53c0.72-2.02,1.8-3.92,3.24-5.67
			l1.36-1.44c1.7-1.65,3.64-2.9,5.79-3.76c2.16-0.85,4.41-1.28,6.75-1.28c2.61,0,5.14,0.53,7.59,1.6c3.36,1.49,5.99,3.77,7.91,6.83
			c1.92,3.06,2.88,6.35,2.88,9.87c0,2.56-0.53,5.06-1.6,7.51c-0.64,1.49-1.68,3.06-3.12,4.72c-1.44,1.65-3.2,3.06-5.27,4.24
			c-2.56,1.28-5.3,1.92-8.23,1.92c-4.42,0-8.37-1.44-11.83-4.32c-2.13-1.7-3.76-3.8-4.88-6.27c-1.12-2.48-1.68-5.05-1.68-7.71
			C282.35,468.63,282.71,466.55,283.43,464.53z"/>
		
			<linearGradient id="SVGID_00000158020262040095772280000006908053093012456878_" gradientUnits="userSpaceOnUse" x1="-93.9231" y1="459.5152" x2="522.5613" y2="473.9359">
			<stop  offset="0" style="stop-color:#0047C6"/>
			<stop  offset="1" style="stop-color:#DB4682"/>
		</linearGradient>
		<path style="fill:url(#SVGID_00000158020262040095772280000006908053093012456878_);" d="M377.22,498.41h15.35
			c5.01,0,9.63-1.24,13.87-3.72c4.24-2.48,7.59-5.83,10.07-10.07c2.48-4.24,3.72-8.86,3.72-13.87c0-5.01-1.24-9.64-3.72-13.91
			c-2.48-4.26-5.83-7.63-10.07-10.11c-4.24-2.48-8.86-3.72-13.87-3.72h-15.98c-0.48,0-0.88,0.17-1.2,0.52
			c-0.32,0.35-0.48,0.76-0.48,1.24v51.31c0,0.64,0.23,1.19,0.68,1.64C376.03,498.19,376.58,498.41,377.22,498.41z M385.21,454.3
			c0-0.27,0.09-0.49,0.28-0.68c0.19-0.19,0.41-0.28,0.68-0.28h6.39c3.14,0,6.05,0.79,8.71,2.36c2.66,1.57,4.78,3.69,6.35,6.35
			c1.57,2.67,2.36,5.57,2.36,8.71c0,3.14-0.79,6.05-2.36,8.71c-1.57,2.66-3.69,4.77-6.35,6.31c-2.66,1.55-5.57,2.32-8.71,2.32h-7.35
			V454.3z"/>
		
			<linearGradient id="SVGID_00000061468102666264369660000014748624683819857538_" gradientUnits="userSpaceOnUse" x1="-93.8876" y1="457.996" x2="522.5968" y2="472.4167">
			<stop  offset="0" style="stop-color:#0047C6"/>
			<stop  offset="1" style="stop-color:#DB4682"/>
		</linearGradient>
		<path style="fill:url(#SVGID_00000061468102666264369660000014748624683819857538_);" d="M432.12,498.49h36.36
			c0.43,0,0.77-0.15,1.04-0.44c0.27-0.29,0.4-0.63,0.4-1v-6.71c0-0.43-0.15-0.79-0.44-1.08c-0.29-0.29-0.63-0.44-1-0.44h-25.58
			c-0.91,0-1.51-0.19-1.8-0.56c-0.29-0.37-0.44-0.83-0.44-1.36v-8.47c0-0.43,0.12-0.84,0.36-1.24c0.24-0.4,0.71-0.6,1.4-0.6h20.06
			c0.37,0,0.69-0.12,0.96-0.36c0.27-0.24,0.4-0.55,0.4-0.92v-6.79c0-0.37-0.13-0.68-0.4-0.92c-0.27-0.24-0.59-0.36-0.96-0.36h-19.98
			c-0.8,0-1.31-0.09-1.52-0.28c-0.21-0.19-0.32-0.52-0.32-1v-0.24v-11.75c0-0.43,0.15-0.77,0.44-1.04c0.29-0.27,0.63-0.4,1-0.4
			h25.81c0.43,0,0.77-0.15,1.04-0.44c0.27-0.29,0.4-0.63,0.4-1v-6.71c0-0.43-0.13-0.77-0.4-1.04c-0.27-0.27-0.61-0.4-1.04-0.4
			h-35.81c-0.37,0-0.71,0.13-1,0.4c-0.29,0.27-0.44,0.61-0.44,1.04v52.67c0,0.37,0.15,0.71,0.44,1
			C431.42,498.35,431.75,498.49,432.12,498.49z"/>
		
			<linearGradient id="SVGID_00000013912391764758308750000003018802365691491759_" gradientUnits="userSpaceOnUse" x1="-95.9737" y1="547.1771" x2="520.5107" y2="561.5977">
			<stop  offset="0" style="stop-color:#0047C6"/>
			<stop  offset="1" style="stop-color:#DB4682"/>
		</linearGradient>
		<path style="fill:url(#SVGID_00000013912391764758308750000003018802365691491759_);" d="M4.35,512.75
			c-0.29,0.29-0.44,0.65-0.44,1.09v10.12c0,0.43,0.14,0.8,0.44,1.09c0.29,0.29,0.62,0.44,0.98,0.44h6.2c0.72,0,1.34,0.24,1.85,0.71
			c0.51,0.47,0.76,1.07,0.76,1.79v58.74c0,0.94,0.47,1.41,1.41,1.41H28.5c0.36,0,0.69-0.13,0.98-0.38c0.29-0.25,0.43-0.6,0.43-1.03
			v-58.74c0-0.65,0.25-1.23,0.76-1.74c0.51-0.51,1.12-0.76,1.85-0.76h20.34c0.36,0,0.69-0.14,0.98-0.44
			c0.29-0.29,0.43-0.65,0.43-1.09v-10.12c0-0.43-0.15-0.8-0.43-1.09c-0.29-0.29-0.62-0.44-0.98-0.44H5.33
			C4.97,512.31,4.64,512.46,4.35,512.75z"/>
		
			<linearGradient id="SVGID_00000104665009292007048710000000613937704958974398_" gradientUnits="userSpaceOnUse" x1="-96.2076" y1="557.1774" x2="520.2768" y2="571.5981">
			<stop  offset="0" style="stop-color:#0047C6"/>
			<stop  offset="1" style="stop-color:#DB4682"/>
		</linearGradient>
		<path style="fill:url(#SVGID_00000104665009292007048710000000613937704958974398_);" d="M71.91,586.39c0,0.51,0.2,0.96,0.6,1.36
			c0.4,0.4,0.85,0.6,1.36,0.6h50.69c0.58,0,1.05-0.2,1.41-0.6c0.36-0.4,0.54-0.85,0.54-1.36v-9.36c0-0.58-0.18-1.05-0.54-1.41
			c-0.36-0.36-0.83-0.54-1.41-0.54H87.14c-0.51,0-0.98-0.22-1.41-0.65c-0.43-0.43-0.65-0.91-0.65-1.41v-11.86
			c0-1.52,0.83-2.28,2.5-2.28h27.74c0.51,0,0.94-0.16,1.3-0.49c0.36-0.33,0.54-0.74,0.54-1.25v-9.35c0-0.51-0.18-0.92-0.54-1.25
			c-0.36-0.33-0.8-0.49-1.3-0.49H87.9c-1.89,0-2.83-0.69-2.83-2.07v-7.83c0-0.58-0.18-1.05-0.54-1.41
			c-0.36-0.36-0.84-0.54-1.41-0.54h-9.25c-0.51,0-0.96,0.18-1.36,0.54c-0.4,0.36-0.6,0.84-0.6,1.41V586.39z"/>
		
			<linearGradient id="SVGID_00000078765456982596180950000011206092964367972519_" gradientUnits="userSpaceOnUse" x1="-95.2057" y1="514.3474" x2="521.2787" y2="528.768">
			<stop  offset="0" style="stop-color:#0047C6"/>
			<stop  offset="1" style="stop-color:#DB4682"/>
		</linearGradient>
		<path style="fill:url(#SVGID_00000078765456982596180950000011206092964367972519_);" d="M73.87,525.58h50.48
			c0.58,0,1.07-0.22,1.47-0.65c0.4-0.43,0.6-0.91,0.6-1.41v-9.35c0-0.51-0.2-0.96-0.6-1.36c-0.4-0.4-0.89-0.6-1.47-0.6H73.87
			c-0.51,0-0.96,0.18-1.36,0.54c-0.4,0.36-0.6,0.83-0.6,1.41v9.35c0,0.58,0.2,1.07,0.6,1.47C72.91,525.38,73.36,525.58,73.87,525.58
			z"/>
		
			<linearGradient id="SVGID_00000038388614541537603710000003547618200268294819_" gradientUnits="userSpaceOnUse" x1="-95.8973" y1="543.9116" x2="520.5871" y2="558.3323">
			<stop  offset="0" style="stop-color:#0047C6"/>
			<stop  offset="1" style="stop-color:#DB4682"/>
		</linearGradient>
		<path style="fill:url(#SVGID_00000038388614541537603710000003547618200268294819_);" d="M163.78,528.25
			c3.81-2.28,7.96-3.43,12.46-3.43c3.48,0,6.8,0.71,9.95,2.12c3.15,1.41,5.89,3.39,8.21,5.93c0.29,0.36,0.65,0.54,1.09,0.54
			c0.43,0,0.83-0.18,1.2-0.54l7.83-6.74c0.36-0.29,0.54-0.69,0.54-1.2c0-0.43-0.15-0.8-0.43-1.09c-3.55-3.92-7.78-7-12.67-9.25
			c-4.89-2.25-10.14-3.37-15.72-3.37c-6.96,0-13.38,1.76-19.25,5.28c-5.87,3.52-10.53,8.27-13.98,14.25
			c-3.45,5.98-5.17,12.49-5.17,19.53c0,7.11,1.72,13.65,5.17,19.64c3.44,5.98,8.1,10.71,13.98,14.2c5.87,3.48,12.29,5.22,19.25,5.22
			c5.44,0,10.57-1.07,15.39-3.21c4.82-2.14,9.01-5.13,12.56-8.97c0.36-0.36,0.54-0.8,0.54-1.3c0-0.87-0.36-1.56-1.09-2.07
			l-4.35-3.92l-2.07-1.74c-0.36-0.36-0.87-0.54-1.52-0.54c-0.73,0-1.41,0.29-2.07,0.87c-2.32,2.32-4.97,4.12-7.94,5.38
			c-2.97,1.27-6.13,1.9-9.46,1.9c-4.5,0-8.65-1.14-12.46-3.43c-3.81-2.28-6.84-5.38-9.08-9.3c-2.25-3.92-3.37-8.16-3.37-12.73
			c0-4.57,1.12-8.81,3.37-12.73C156.94,533.63,159.97,530.53,163.78,528.25z"/>
		
			<linearGradient id="SVGID_00000148622563334500135670000016304166636629974685_" gradientUnits="userSpaceOnUse" x1="-95.8561" y1="542.1526" x2="520.6282" y2="556.5733">
			<stop  offset="0" style="stop-color:#0047C6"/>
			<stop  offset="1" style="stop-color:#DB4682"/>
		</linearGradient>
		<path style="fill:url(#SVGID_00000148622563334500135670000016304166636629974685_);" d="M222.25,588.13h10.88
			c0.36,0,0.71-0.14,1.03-0.43c0.33-0.29,0.49-0.65,0.49-1.09l-0.22-43.62c0-1.01,0.29-1.52,0.87-1.52c0.36,0,0.76,0.33,1.2,0.98
			l27.41,43.62c0.58,0.94,1.12,1.52,1.63,1.74c0.51,0.22,1.41,0.33,2.72,0.33h7.72c0.43,0,0.81-0.14,1.14-0.43
			c0.33-0.29,0.49-0.65,0.49-1.09v-72.78c0-0.43-0.16-0.8-0.49-1.09c-0.33-0.29-0.71-0.44-1.14-0.44h-11.42
			c-0.43,0-0.82,0.15-1.14,0.44c-0.33,0.29-0.49,0.65-0.49,1.09l0.22,42.64c0,1.6-0.29,2.39-0.87,2.39c-0.51,0-1.16-0.72-1.96-2.18
			l-25.78-43.62c-0.29-0.51-0.69-0.76-1.2-0.76h-11.1c-0.43,0-0.82,0.15-1.14,0.44c-0.33,0.29-0.49,0.65-0.49,1.09v72.78
			c0,0.44,0.16,0.8,0.49,1.09C221.43,587.99,221.81,588.13,222.25,588.13z"/>
		
			<linearGradient id="SVGID_00000166646849165801434620000015087568521347578522_" gradientUnits="userSpaceOnUse" x1="-95.8138" y1="540.3422" x2="520.6706" y2="554.7629">
			<stop  offset="0" style="stop-color:#0047C6"/>
			<stop  offset="1" style="stop-color:#DB4682"/>
		</linearGradient>
		<path style="fill:url(#SVGID_00000166646849165801434620000015087568521347578522_);" d="M361.28,528.96
			c-0.51,0-1.05,0.18-1.63,0.54c-0.43,0.29-1.49,1.02-3.15,2.17c-1.67,1.16-2.79,1.92-3.37,2.28c-0.87,0.73-1.3,1.56-1.3,2.5
			c0,0.73,0.18,1.45,0.54,2.18c1.81,3.55,2.72,7.4,2.72,11.53c0,2.9-0.49,5.75-1.47,8.54c-0.98,2.79-2.45,5.35-4.41,7.67
			c-2.32,2.9-5.15,5.11-8.49,6.64c-3.34,1.52-6.82,2.28-10.44,2.28c-5.95,0-11.31-1.96-16.1-5.87c-2.83-2.39-5-5.28-6.53-8.65
			c-1.52-3.37-2.28-6.87-2.28-10.5c0-6.02,1.96-11.42,5.87-16.21c2.03-2.61,4.53-4.7,7.51-6.26c2.97-1.56,6.09-2.48,9.35-2.77
			c1.52-0.14,2.28-0.91,2.28-2.28v-9.46c-0.07-0.65-0.31-1.2-0.71-1.63c-0.4-0.43-0.89-0.65-1.47-0.65h-0.22
			c-5.29,0.29-10.33,1.61-15.12,3.97c-4.79,2.36-8.96,5.71-12.51,10.06c-2.97,3.55-5.2,7.49-6.69,11.8
			c-1.49,4.32-2.23,8.72-2.23,13.22c0,5.73,1.2,11.26,3.59,16.59c2.39,5.33,5.84,9.92,10.33,13.76c3.34,2.97,7.14,5.24,11.42,6.8
			c4.28,1.56,8.7,2.34,13.27,2.34c5.8,0,11.37-1.21,16.7-3.64c5.33-2.43,9.77-5.93,13.33-10.5c2.97-3.55,5.22-7.49,6.74-11.8
			c1.52-4.31,2.28-8.76,2.28-13.33c0-7.03-1.74-13.6-5.22-19.69C363.3,529.5,362.43,528.96,361.28,528.96z"/>
		
			<linearGradient id="SVGID_00000060731349486646357690000007423022443596785317_" gradientUnits="userSpaceOnUse" x1="-95.7771" y1="538.7756" x2="520.7072" y2="553.1964">
			<stop  offset="0" style="stop-color:#0047C6"/>
			<stop  offset="1" style="stop-color:#DB4682"/>
		</linearGradient>
		<path style="fill:url(#SVGID_00000060731349486646357690000007423022443596785317_);" d="M402.4,573.83
			c-0.43-0.47-0.65-1-0.65-1.58v-57.87c0-0.58-0.22-1.1-0.65-1.58c-0.43-0.47-0.98-0.71-1.63-0.71h-11.75
			c-0.58,0-1.11,0.24-1.58,0.71c-0.47,0.47-0.71,1-0.71,1.58v71.69c0,0.65,0.23,1.2,0.71,1.63c0.47,0.43,1,0.65,1.58,0.65h42.54
			c0.65,0,1.2-0.22,1.63-0.65c0.44-0.43,0.65-0.98,0.65-1.63v-9.35c0-0.58-0.22-1.09-0.65-1.52c-0.43-0.43-0.98-0.65-1.63-0.65
			h-26.33C403.34,574.54,402.83,574.3,402.4,573.83z"/>
		
			<linearGradient id="SVGID_00000042003710495630515730000011292659854809467013_" gradientUnits="userSpaceOnUse" x1="-95.7333" y1="536.9037" x2="520.751" y2="551.3244">
			<stop  offset="0" style="stop-color:#0047C6"/>
			<stop  offset="1" style="stop-color:#DB4682"/>
		</linearGradient>
		<path style="fill:url(#SVGID_00000042003710495630515730000011292659854809467013_);" d="M508.35,528.96
			c-0.51,0-1.05,0.18-1.63,0.54c-0.43,0.29-1.49,1.02-3.15,2.17c-1.67,1.16-2.79,1.92-3.37,2.28c-0.87,0.73-1.3,1.56-1.3,2.5
			c0,0.73,0.18,1.45,0.54,2.18c1.81,3.55,2.72,7.4,2.72,11.53c0,2.9-0.49,5.75-1.47,8.54c-0.98,2.79-2.45,5.35-4.41,7.67
			c-2.32,2.9-5.15,5.11-8.49,6.64c-3.34,1.52-6.82,2.28-10.44,2.28c-5.95,0-11.31-1.96-16.1-5.87c-2.83-2.39-5-5.28-6.53-8.65
			c-1.52-3.37-2.28-6.87-2.28-10.5c0-6.02,1.96-11.42,5.87-16.21c2.03-2.61,4.53-4.7,7.51-6.26c2.97-1.56,6.09-2.48,9.35-2.77
			c1.52-0.14,2.28-0.91,2.28-2.28v-9.46c-0.07-0.65-0.31-1.2-0.71-1.63c-0.4-0.43-0.89-0.65-1.47-0.65h-0.22
			c-5.29,0.29-10.33,1.61-15.12,3.97c-4.79,2.36-8.96,5.71-12.51,10.06c-2.97,3.55-5.2,7.49-6.69,11.8
			c-1.49,4.32-2.23,8.72-2.23,13.22c0,5.73,1.2,11.26,3.59,16.59c2.39,5.33,5.84,9.92,10.33,13.76c3.34,2.97,7.14,5.24,11.42,6.8
			c4.28,1.56,8.7,2.34,13.27,2.34c5.8,0,11.37-1.21,16.7-3.64c5.33-2.43,9.77-5.93,13.33-10.5c2.97-3.55,5.22-7.49,6.74-11.8
			c1.52-4.31,2.28-8.76,2.28-13.33c0-7.03-1.74-13.6-5.22-19.69C510.38,529.5,509.51,528.96,508.35,528.96z"/>
		
			<linearGradient id="SVGID_00000021814814274237054690000007532130948153882025_" gradientUnits="userSpaceOnUse" x1="-95.6826" y1="534.7358" x2="520.8018" y2="549.1565">
			<stop  offset="0" style="stop-color:#0047C6"/>
			<stop  offset="1" style="stop-color:#DB4682"/>
		</linearGradient>
		<path style="fill:url(#SVGID_00000021814814274237054690000007532130948153882025_);" d="M601.25,570.18
			c3.19-6.02,4.79-12.66,4.79-19.91c0-1.09-0.47-1.92-1.41-2.5c-0.94-0.58-2.28-0.87-4.02-0.87h-23.17c-0.58,0-1.09,0.22-1.52,0.65
			c-0.44,0.43-0.65,0.94-0.65,1.52v7.94c0,0.58,0.22,1.09,0.65,1.52c0.43,0.43,0.94,0.65,1.52,0.65h14.03
			c-1.89,5-4.82,9.01-8.81,12.02c-3.99,3.01-8.63,4.51-13.92,4.51c-4.57,0-8.81-1.14-12.73-3.43c-3.92-2.28-7.02-5.38-9.3-9.3
			c-2.28-3.92-3.43-8.16-3.43-12.73c0-4.57,1.14-8.81,3.43-12.73c2.28-3.92,5.38-7.02,9.3-9.3c3.92-2.28,8.16-3.43,12.73-3.43
			l2.83,0.11c1.23,0,1.96-0.58,2.18-1.74l1.74-9.46c0.14-0.65,0.04-1.23-0.33-1.74c-0.36-0.51-0.87-0.8-1.52-0.87
			c-1.6-0.22-3.23-0.33-4.89-0.33c-7.18,0-13.8,1.76-19.85,5.28c-6.06,3.52-10.84,8.3-14.36,14.36c-3.52,6.06-5.28,12.67-5.28,19.85
			c0,7.18,1.76,13.8,5.28,19.85c3.52,6.06,8.3,10.84,14.36,14.36c6.05,3.52,12.67,5.28,19.85,5.28c7.11,0,13.51-1.76,19.2-5.28
			C593.62,580.97,598.06,576.21,601.25,570.18z"/>
		
			<linearGradient id="SVGID_00000040537077517034697200000009790573853430458555_" gradientUnits="userSpaceOnUse" x1="-95.6482" y1="533.2645" x2="520.8362" y2="547.6852">
			<stop  offset="0" style="stop-color:#0047C6"/>
			<stop  offset="1" style="stop-color:#DB4682"/>
		</linearGradient>
		<path style="fill:url(#SVGID_00000040537077517034697200000009790573853430458555_);" d="M636.72,586.39v-72.23
			c0-0.58-0.2-1.07-0.6-1.47c-0.4-0.4-0.85-0.6-1.36-0.6h-10.88c-0.51,0-0.98,0.2-1.41,0.6c-0.43,0.4-0.65,0.89-0.65,1.47v72.23
			c0,0.51,0.2,0.96,0.6,1.36c0.4,0.4,0.89,0.6,1.47,0.6h10.88c0.58,0,1.05-0.2,1.41-0.6C636.53,587.36,636.72,586.9,636.72,586.39z"
			/>
		
			<linearGradient id="SVGID_00000045581786337661468220000003744334027128859823_" gradientUnits="userSpaceOnUse" x1="-95.6241" y1="532.2352" x2="520.8602" y2="546.6559">
			<stop  offset="0" style="stop-color:#0047C6"/>
			<stop  offset="1" style="stop-color:#DB4682"/>
		</linearGradient>
		<path style="fill:url(#SVGID_00000045581786337661468220000003744334027128859823_);" d="M700.57,564.96
			c0.58,0.43,0.94,0.98,1.09,1.63l5.33,20.23c0.07,0.43,0.34,0.82,0.82,1.14c0.47,0.33,0.92,0.49,1.36,0.49h10.66
			c0.72,0,1.09-0.4,1.09-1.2v-0.33l-19.25-73.21c-0.15-0.43-0.43-0.8-0.87-1.09c-0.44-0.29-0.87-0.43-1.31-0.43h-22.63
			c-0.51,0-0.96,0.16-1.36,0.49c-0.4,0.33-0.67,0.71-0.82,1.14l-19.25,73.21c-0.07,0.36,0,0.69,0.22,0.98
			c0.22,0.29,0.51,0.43,0.87,0.43h10.66c0.43,0,0.89-0.16,1.36-0.49c0.47-0.33,0.74-0.74,0.82-1.25l5.33-20.12
			c0.14-0.65,0.51-1.2,1.09-1.63c0.58-0.43,1.2-0.65,1.85-0.65h21.1C699.37,564.31,699.99,564.53,700.57,564.96z M697.04,551.91
			c-0.4,0.51-0.96,0.76-1.69,0.76h-14.36c-0.65,0-1.16-0.18-1.52-0.54c-0.36-0.36-0.54-0.83-0.54-1.41l0.11-0.54l5.98-22.41
			c0.07-0.58,0.4-1.09,0.98-1.52c0.58-0.43,1.2-0.65,1.85-0.65h0.65c0.65,0,1.27,0.22,1.85,0.65c0.58,0.43,0.91,0.94,0.98,1.52
			l6.09,22.41C697.56,550.82,697.43,551.4,697.04,551.91z"/>
		
			<linearGradient id="SVGID_00000097477493285355608660000005047286146522893711_" gradientUnits="userSpaceOnUse" x1="-97.6681" y1="619.6138" x2="518.8163" y2="634.0345">
			<stop  offset="0" style="stop-color:#0047C6"/>
			<stop  offset="1" style="stop-color:#DB4682"/>
		</linearGradient>
		<path style="fill:url(#SVGID_00000097477493285355608660000005047286146522893711_);" d="M404.56,606.93
			c-4.23-2.47-8.84-3.71-13.84-3.71h-15.96c-0.48,0-0.88,0.17-1.2,0.52c-0.32,0.35-0.48,0.76-0.48,1.24v51.22
			c0,0.64,0.23,1.18,0.68,1.64c0.45,0.45,1,0.68,1.64,0.68h15.32c5,0,9.61-1.24,13.84-3.71c4.23-2.47,7.58-5.82,10.05-10.05
			c2.47-4.23,3.71-8.84,3.71-13.84c0-5-1.24-9.63-3.71-13.88C412.14,612.77,408.79,609.4,404.56,606.93z M405.76,639.6
			c-1.57,2.66-3.68,4.76-6.34,6.3c-2.66,1.54-5.56,2.31-8.7,2.31h-7.34v-33.75c0-0.27,0.09-0.49,0.28-0.68
			c0.19-0.19,0.41-0.28,0.68-0.28h6.38c3.14,0,6.04,0.79,8.7,2.35c2.66,1.57,4.77,3.68,6.34,6.34c1.57,2.66,2.35,5.56,2.35,8.7
			C408.11,634.04,407.33,636.94,405.76,639.6z"/>
		
			<linearGradient id="SVGID_00000052076146504037446980000003168993634727439247_" gradientUnits="userSpaceOnUse" x1="-97.5765" y1="615.6973" x2="518.9079" y2="630.1179">
			<stop  offset="0" style="stop-color:#0047C6"/>
			<stop  offset="1" style="stop-color:#DB4682"/>
		</linearGradient>
		<path style="fill:url(#SVGID_00000052076146504037446980000003168993634727439247_);" d="M576.69,603.06h-7.9
			c-0.48,0-0.9,0.29-1.28,0.88l-12.05,19.95c-0.05,0.11-0.17,0.28-0.36,0.52c-0.19,0.24-0.47,0.36-0.84,0.36h-0.16
			c-0.37,0-0.68-0.11-0.92-0.32c-0.24-0.21-0.39-0.37-0.44-0.48l-12.13-20.1c-0.27-0.53-0.67-0.8-1.2-0.8h-7.82
			c-0.37,0-0.69,0.15-0.96,0.44c-0.27,0.29-0.4,0.63-0.4,1v52.89c0,0.37,0.13,0.71,0.4,1c0.27,0.29,0.59,0.44,0.96,0.44h7.74
			c0.43,0,0.77-0.15,1.04-0.44c0.27-0.29,0.4-0.62,0.4-1v-31.75c0-0.48,0.11-0.72,0.32-0.72c0.16,0,0.4,0.24,0.72,0.72l8.62,12.21
			c0.37,0.53,0.74,0.88,1.12,1.04c0.37,0.16,1.06,0.24,2.07,0.24h1.36c0.85,0,1.45-0.11,1.8-0.32c0.35-0.21,0.76-0.66,1.24-1.36
			l8.38-11.89c0.27-0.43,0.51-0.64,0.72-0.64c0.21,0,0.32,0.27,0.32,0.8v31.67c0,0.43,0.13,0.77,0.4,1.04
			c0.27,0.27,0.61,0.4,1.04,0.4h7.82c0.37,0,0.69-0.15,0.96-0.44c0.27-0.29,0.4-0.62,0.4-1V604.5c0-0.37-0.13-0.7-0.4-1
			C577.38,603.21,577.06,603.06,576.69,603.06z"/>
		
			<linearGradient id="SVGID_00000144320958673694905840000010566577312409421699_" gradientUnits="userSpaceOnUse" x1="-97.5438" y1="614.3026" x2="518.9406" y2="628.7232">
			<stop  offset="0" style="stop-color:#0047C6"/>
			<stop  offset="1" style="stop-color:#DB4682"/>
		</linearGradient>
		<path style="fill:url(#SVGID_00000144320958673694905840000010566577312409421699_);" d="M624.08,603.06h-34.86
			c-0.27,0-0.51,0.11-0.72,0.32c-0.21,0.21-0.32,0.48-0.32,0.8v7.42c0,0.32,0.11,0.59,0.32,0.8c0.21,0.21,0.45,0.32,0.72,0.32h4.55
			c0.53,0,0.98,0.17,1.36,0.52c0.37,0.35,0.56,0.79,0.56,1.32v43.08c0,0.69,0.35,1.04,1.04,1.04h9.49c0.27,0,0.51-0.09,0.72-0.28
			c0.21-0.19,0.32-0.44,0.32-0.76v-43.08c0-0.48,0.19-0.9,0.56-1.28c0.37-0.37,0.82-0.56,1.36-0.56h14.92
			c0.27,0,0.51-0.11,0.72-0.32c0.21-0.21,0.32-0.48,0.32-0.8v-7.42c0-0.32-0.11-0.58-0.32-0.8
			C624.58,603.17,624.34,603.06,624.08,603.06z"/>
		
			<linearGradient id="SVGID_00000045592683986700026070000016406041093150601374_" gradientUnits="userSpaceOnUse" x1="-97.979" y1="632.9074" x2="518.5053" y2="647.3281">
			<stop  offset="0" style="stop-color:#0047C6"/>
			<stop  offset="1" style="stop-color:#DB4682"/>
		</linearGradient>
		<path style="fill:url(#SVGID_00000045592683986700026070000016406041093150601374_);" d="M642.59,647.42l-3.19-1.28
			c-0.48-0.27-0.85-0.21-1.12,0.16c-0.85,1.44-1.52,2.59-1.99,3.47c-0.48,0.88-0.72,1.48-0.72,1.79c0,0.16,0.13,0.37,0.4,0.64
			c0.64,0.53,1.86,1.2,3.67,1.99c0.32,0.16,0.61,0.19,0.88,0.08c0.27-0.11,0.45-0.29,0.56-0.56l1.91-5.35
			c0.05-0.21,0.04-0.4-0.04-0.56C642.87,647.66,642.75,647.52,642.59,647.42z"/>
		
			<linearGradient id="SVGID_00000044875845261865337770000012539405310301058448_" gradientUnits="userSpaceOnUse" x1="-97.5199" y1="613.3259" x2="518.9644" y2="627.7466">
			<stop  offset="0" style="stop-color:#0047C6"/>
			<stop  offset="1" style="stop-color:#DB4682"/>
		</linearGradient>
		<path style="fill:url(#SVGID_00000044875845261865337770000012539405310301058448_);" d="M669.07,631.5
			c-1.97-1.04-4.87-2.25-8.7-3.63c-1.54-0.53-3.42-1.3-5.62-2.31c-2.21-1.01-3.68-1.76-4.43-2.23c-1.86-1.17-2.79-2.55-2.79-4.15
			c0-1.01,0.41-2.01,1.24-2.99c0.82-0.98,1.96-1.82,3.39-2.51c1.91-0.74,3.96-1.12,6.14-1.12c1.86,0,3.72,0.27,5.58,0.8
			c1.6,0.43,3.48,1.25,5.66,2.47c0.27,0.16,0.53,0.24,0.8,0.24c0.32,0,0.56-0.08,0.72-0.24l0.96-1.36c1.54-2.18,2.45-3.56,2.71-4.15
			c0.05-0.11,0-0.29-0.16-0.56c-0.16-0.27-0.37-0.5-0.64-0.72c-1.44-1.22-2.98-2.26-4.63-3.11c-1.81-0.85-3.94-1.49-6.38-1.91
			c-2.45-0.43-4.95-0.58-7.5-0.48c-3.51,0.37-6.62,1.34-9.33,2.91c-2.71,1.57-4.83,3.52-6.34,5.86c-1.52,2.34-2.27,4.81-2.27,7.42
			c0,2.5,0.74,4.92,2.23,7.26c1.22,1.76,3.1,3.23,5.62,4.43c2.53,1.2,5.81,2.49,9.85,3.87c2.66,0.85,4.76,1.62,6.3,2.31
			c1.54,0.69,2.61,1.41,3.19,2.15c0.9,1.28,1.36,2.58,1.36,3.91c0,1.81-0.84,3.32-2.51,4.55c-1.68,1.22-3.84,1.84-6.5,1.84
			l-3.35-0.08c-0.91,0-1.41,0.43-1.52,1.28c-0.11,0.48-0.19,1-0.24,1.56c-0.05,0.56-0.11,1.05-0.16,1.48l-0.32,2.31
			c-0.11,0.48-0.05,0.84,0.16,1.08c0.21,0.24,0.59,0.39,1.12,0.44c1.28,0.21,2.37,0.32,3.27,0.32c3.88,0,7.31-0.65,10.29-1.95
			c2.98-1.3,5.28-3.1,6.9-5.39c1.62-2.29,2.43-4.92,2.43-7.9c0-3.08-0.6-5.54-1.8-7.38S671.04,632.54,669.07,631.5z"/>
		
			<linearGradient id="SVGID_00000024715040781387111710000008631879716930017413_" gradientUnits="userSpaceOnUse" x1="-97.4901" y1="612.0027" x2="518.9943" y2="626.4235">
			<stop  offset="0" style="stop-color:#0047C6"/>
			<stop  offset="1" style="stop-color:#DB4682"/>
		</linearGradient>
		<path style="fill:url(#SVGID_00000024715040781387111710000008631879716930017413_);" d="M723.16,603.38
			c-0.21-0.21-0.45-0.32-0.72-0.32h-34.86c-0.27,0-0.51,0.11-0.72,0.32c-0.21,0.21-0.32,0.48-0.32,0.8v7.42
			c0,0.32,0.11,0.59,0.32,0.8c0.21,0.21,0.45,0.32,0.72,0.32h4.55c0.53,0,0.98,0.17,1.36,0.52c0.37,0.35,0.56,0.79,0.56,1.32v43.08
			c0,0.69,0.35,1.04,1.04,1.04h9.49c0.27,0,0.51-0.09,0.72-0.28c0.21-0.19,0.32-0.44,0.32-0.76v-43.08c0-0.48,0.19-0.9,0.56-1.28
			c0.37-0.37,0.82-0.56,1.36-0.56h14.92c0.27,0,0.51-0.11,0.72-0.32c0.21-0.21,0.32-0.48,0.32-0.8v-7.42
			C723.48,603.86,723.38,603.59,723.16,603.38z"/>
		
			<linearGradient id="SVGID_00000149368870584885096320000018118932676137889695_" gradientUnits="userSpaceOnUse" x1="-93.7924" y1="453.9273" x2="522.692" y2="468.348">
			<stop  offset="0" style="stop-color:#0047C6"/>
			<stop  offset="1" style="stop-color:#DB4682"/>
		</linearGradient>
		<path style="fill:url(#SVGID_00000149368870584885096320000018118932676137889695_);" d="M511.38,491.19h91.91
			c1.56,0,2.89-0.56,4.01-1.67c1.11-1.12,1.67-2.46,1.67-4.01v-24.73h106.27c1.56,0,2.89-0.56,4.01-1.67
			c1.11-1.12,1.67-2.45,1.67-4.01c0-1.56-0.56-2.84-1.67-3.84c-1.12-1-2.45-1.51-4.01-1.51H603.28c-3.57,0-5.35,1.78-5.35,5.35
			v25.06h-86.56c-3.56,0-5.35,1.78-5.35,5.35c0,1.56,0.5,2.89,1.5,4.01C508.54,490.63,509.81,491.19,511.38,491.19z"/>
		
			<linearGradient id="SVGID_00000141415571623894097950000018275978340556477317_" gradientUnits="userSpaceOnUse" x1="-97.6851" y1="620.3399" x2="518.7993" y2="634.7606">
			<stop  offset="0" style="stop-color:#0047C6"/>
			<stop  offset="1" style="stop-color:#DB4682"/>
		</linearGradient>
		<path style="fill:url(#SVGID_00000141415571623894097950000018275978340556477317_);" d="M345.69,624.87h-0.33
			c-1.56-0.45-3.12-0.33-4.68,0.33c-1.56,0.67-2.56,1.78-3.01,3.34l-0.33,2.01c0,3.12,1.34,5.01,4.01,5.68h0.33
			c1.56,0.67,3.12,0.67,4.68,0c1.56-0.67,2.56-1.89,3.01-3.67c0-0.45,0.05-0.78,0.17-1c0.11-0.22,0.17-0.56,0.17-1
			C349.7,627.88,348.36,625.98,345.69,624.87z"/>
		
			<linearGradient id="SVGID_00000155123430904363398850000008347395101953961906_" gradientUnits="userSpaceOnUse" x1="-97.7879" y1="624.737" x2="518.6965" y2="639.1577">
			<stop  offset="0" style="stop-color:#0047C6"/>
			<stop  offset="1" style="stop-color:#DB4682"/>
		</linearGradient>
		<path style="fill:url(#SVGID_00000155123430904363398850000008347395101953961906_);" d="M322.79,625.35h-45.13h-35.74h-30.03
			h-15.1h-51.35h-14.42H86.22H64.56H5.35c-3.57,0-5.35,1.78-5.35,5.35c0,3.79,1.78,5.68,5.35,5.68h59.21h21.66h44.79h14.42h51.35
			h15.1h30.03h35.74h45.13c3.56,0,5.35-1.9,5.35-5.68C328.13,627.13,326.35,625.35,322.79,625.35z"/>
		
			<linearGradient id="SVGID_00000009585462648502788040000010540953282574510753_" gradientUnits="userSpaceOnUse" x1="-94.2124" y1="471.8855" x2="522.2719" y2="486.3062">
			<stop  offset="0" style="stop-color:#0047C6"/>
			<stop  offset="1" style="stop-color:#DB4682"/>
		</linearGradient>
		<path style="fill:url(#SVGID_00000009585462648502788040000010540953282574510753_);" d="M490.66,491.19h0.33
			c1.56,0.67,3.12,0.67,4.68,0c1.56-0.67,2.56-1.89,3.01-3.67c0-0.45,0.05-0.78,0.17-1c0.11-0.22,0.17-0.56,0.17-1
			c0-2.67-1.34-4.57-4.01-5.68h-0.33c-1.56-0.45-3.12-0.33-4.68,0.33c-1.56,0.67-2.56,1.78-3.01,3.34l-0.33,2.01
			C486.65,488.62,487.98,490.52,490.66,491.19z"/>
	</g>
	<path id="Path_0_00000026862942920560396940000003320933557065504699_" class="st33" d="M335.9,0.7
		c0.79,0.86,12.11,16.35,25.16,34.42c13.06,18.07,28.42,39.43,34.14,47.46c5.73,8.03,18.89,26.81,29.27,41.73
		c10.37,14.92,27.87,40.5,38.89,56.85c11.03,16.35,26.98,40.29,35.45,53.2c8.46,12.9,18.66,28.63,22.65,34.95
		c4,6.31,12.42,19.92,18.72,30.25c6.3,10.33,16.41,27.46,22.45,38.08c6.05,10.61,15.11,27.75,20.12,38.08
		c5.02,10.33,10.36,22.53,11.86,27.12c1.51,4.59,2.45,9.04,2.11,9.91c-0.54,1.3-2.1,1.44-9.46,0.78c-6.2-0.55-11.19-1.77-16.89-4.14
		c-4.44-1.85-10.9-5.24-14.34-7.54c-3.44-2.31-10.19-7.96-15-12.56c-4.81-4.59-12.1-12.35-16.2-17.22
		c-4.11-4.88-9.82-11.92-12.71-15.65c-2.88-3.73-12.23-16.64-20.77-28.69c-8.54-12.05-21.16-29.66-28.02-39.12
		c-6.86-9.47-16.48-22.15-21.36-28.17c-4.88-6.03-13.84-16.29-19.91-22.81c-6.06-6.53-16.66-17.03-23.54-23.35
		c-6.88-6.32-16.51-14.15-21.38-17.41c-4.88-3.25-11.21-6.74-14.08-7.75c-2.87-1-8.5-2.1-12.52-2.42
		c-6.23-0.51-8.14-0.23-12.96,1.89c-3.6,1.58-7.33,4.38-10.3,7.7c-2.55,2.87-5.94,7.79-7.52,10.95c-1.58,3.15-5.04,11.6-7.68,18.78
		c-2.65,7.17-10.02,28.29-16.4,46.94c-6.37,18.64-14.81,42.11-18.76,52.16c-3.94,10.05-10.43,24.83-14.41,32.86
		c-3.98,8.03-9.58,18.12-12.42,22.43c-2.85,4.3-7.7,10.37-10.79,13.48c-3.09,3.11-7.96,7.16-10.83,8.98
		c-2.87,1.84-8.62,5.05-12.78,7.14c-4.16,2.08-11.2,5.04-15.65,6.57c-7.54,2.6-9.58,2.81-30.51,3.23
		c-20.76,0.43-23.09,0.28-31.29-1.89c-4.88-1.28-9.47-2.86-10.21-3.49c-0.75-0.64-1.35-1.87-1.34-2.72
		c0.01-0.87,6.43-9.08,14.26-18.26c7.83-9.18,20.58-25.14,28.33-35.47c7.74-10.33,19.82-27.47,26.84-38.08
		c7.02-10.62,17.7-27.75,23.73-38.08c6.04-10.33,15.17-26.76,20.29-36.51c5.11-9.75,13.35-26.18,18.3-36.51
		c4.94-10.33,11.62-24.88,14.84-32.34c4.18-9.69,5.66-14.3,5.21-16.17c-0.35-1.44-5.13-14.34-10.61-28.69
		c-5.49-14.34-10.37-26.55-10.87-27.12c-0.58-0.68-3.72-0.04-8.98,1.83c-4.44,1.58-14.19,3.87-21.65,5.09
		c-7.46,1.21-17.32,3.56-21.91,5.19c-4.59,1.65-13.75,6.06-20.34,9.82c-6.6,3.76-12.24,6.79-12.52,6.74
		c-0.29-0.04-6.62-7.83-14.08-17.33c-7.46-9.48-15.21-19.53-17.21-22.32c-3.59-5-3.62-5.13-1.83-7.74c1-1.46,4.29-4.46,7.3-6.67
		c3.01-2.2,7.82-4.99,10.69-6.2c2.87-1.2,8.26-2.9,12-3.77c3.72-0.87,10.77-2.07,15.65-2.65c4.87-0.59,13.09-2.28,18.26-3.76
		c5.21-1.49,12.64-4.62,16.69-7.03c4.02-2.39,9.53-6.35,12.26-8.81c2.72-2.45,5.54-4.31,6.26-4.12s3.65,5.51,6.52,11.82
		c2.87,6.3,8.16,18,11.77,25.99c3.6,7.99,7.39,18.05,8.43,22.35c1.03,4.3,5.12,18.24,9.1,30.98c3.97,12.74,7.57,22.82,8,22.43
		c0.44-0.41,4.57-10.36,9.18-22.12c4.61-11.77,13.09-35.24,18.84-52.16c5.75-16.93,13.19-40.4,16.53-52.16
		c3.35-11.77,6.63-23.5,7.29-26.08C334.31-0.24,334.67-0.66,335.9,0.7z M338.53,240.23c3.15,0.25,7.5,0.92,9.65,1.47
		c2.15,0.56,5.04,2.07,6.42,3.36c1.7,1.59,3.04,4.72,4.12,9.65c1.55,7.07,1.52,7.55-0.84,15.13c-1.76,5.65-2.97,7.92-4.37,8.16
		c-1.1,0.19-2.95,2.45-4.3,5.22c-1.29,2.68-2.35,5.35-2.33,5.93s-0.91,2.1-2.07,3.39c-1.6,1.78-3.62,2.47-8.37,2.87
		c-3.44,0.28-6.26,0.99-6.26,1.56s1.19,7.26,2.65,14.87c1.45,7.6,3.21,15.14,3.91,16.73c0.69,1.6,1.62,2.89,2.04,2.87
		c0.43-0.02,7-1.68,14.6-3.69c7.6-2,15.81-3.65,18.26-3.65c2.44,0,6.11,0.82,8.17,1.83c2.38,1.16,3.95,2.77,4.31,4.43
		c0.41,1.83-0.01,3.01-1.39,3.95c-1.21,0.83-4.78,1.3-9.26,1.22c-6.54-0.13-8,0.24-14.08,3.58c-3.84,2.11-5.87,3.71-4.69,3.69
		c1.15-0.01,2.67,0.58,3.39,1.34c0.72,0.74,1.78,6.04,2.37,11.78c0.58,5.74,1.83,13.25,2.76,16.69c0.94,3.44,1.75,9.88,1.8,14.3
		c0.07,5.81-0.33,8.51-1.46,9.75c-1.06,1.17-2.48,1.51-4.43,1.08c-1.92-0.42-3.64-2-5.22-4.79c-1.49-2.64-3.11-4.18-4.43-4.2
		c-1.15-0.03-4.2,1.54-6.78,3.48c-2.59,1.94-6.57,4.5-8.87,5.66c-2.29,1.18-7.23,2.94-10.95,3.92c-4.39,1.15-9.35,1.63-14.08,1.37
		c-5.55-0.3-8.25-1.01-11.25-2.97c-2.16-1.42-5.55-4.92-7.53-7.79c-1.98-2.87-4.63-8.03-5.88-11.47c-1.84-5.04-2.27-8.49-2.24-17.73
		c0.02-8.96,0.61-13.64,2.69-21.38c1.47-5.46,3.69-12.73,4.94-16.17c1.96-5.37,3.77-7.7,12.86-16.47
		c5.82-5.61,12.58-11.71,15.03-13.56c2.44-1.84,4.09-3.67,3.65-4.07c-0.45-0.39-3.73-2.15-7.32-3.91c-3.7-1.82-7.28-4.43-8.29-6.06
		c-0.97-1.58-1.74-4.52-1.7-6.52c0.03-2.01,0.81-6.24,1.73-9.39c1.24-4.24,3.55-7.92,8.79-14.08c3.91-4.59,8.5-8.91,10.2-9.6
		c1.7-0.7,4.26-1.48,5.7-1.74C331.61,239.97,335.37,239.97,338.53,240.23z M464.49,301.27c4.6-0.1,6.52,0.24,6.51,1.16
		c0,0.72-2.85,11.39-6.32,23.73c-3.46,12.33-6.51,23.25-6.77,24.25c-0.4,1.6,0.39,1.83,6.32,1.83c3.72,0,7.01,0.47,7.3,1.04
		c0.28,0.57-0.3,3.7-1.3,6.95c-1,3.25-2.53,6.08-3.39,6.28c-0.87,0.21-2.33,1.89-3.25,3.74c-0.92,1.86-2,5.01-2.4,7.02
		c-0.54,2.73-0.3,4.05,0.98,5.22c1.58,1.45,1.56,2.46-1.89,25.56l-31.41,0.38c-17.26,0.21-32.45,0.09-33.75-0.26
		c-2.29-0.63-2.34-0.95-1.83-26.19l-13.56-1.04v-5.82c0-3.68,0.57-6.48,1.56-7.6c0.86-0.99,2.39-1.77,3.39-1.74
		c1,0.02,2.02-0.54,2.25-1.26c0.24-0.72,0.71-2.83,1.66-8.08l-9.91,0.52c-9.39,0.49-9.91,0.41-9.91-1.56c0-1.15,0.7-2.33,1.56-2.61
		c0.86-0.29,5.43-0.53,10.17-0.53c4.74-0.01,9.54-0.27,10.69-0.57c1.73-0.46,3.15-4.36,8.35-23.03c3.44-12.35,6.49-22.9,6.78-23.42
		c0.28-0.53,12.02-1.6,26.08-2.38C446.46,302.06,460.9,301.35,464.49,301.27z M452.75,366.56c2.29-0.22-0.05-0.4-5.22-0.4
		c-5.16,0.01-7.04,0.19-4.17,0.41C446.23,366.78,450.46,366.78,452.75,366.56z M447.54,382.21c2.29-0.23,0.89-0.42-3.13-0.42
		c-4.02-0.01-5.89,0.18-4.17,0.41S445.24,382.43,447.54,382.21z"/>
</g>
</svg>
